<?xml version="1.0" encoding="UTF-8"?>
<svg xmlns="http://www.w3.org/2000/svg" style="stroke-dasharray:none; shape-rendering:auto; font-family:'Arial'; text-rendering:auto; fill-opacity:1; color-interpolation:auto; color-rendering:auto; font-size:12; fill:black; stroke:black; image-rendering:auto; stroke-miterlimit:10; stroke-linecap:square; stroke-linejoin:miter; font-style:normal; stroke-width:1; stroke-dashoffset:0; font-weight:normal; stroke-opacity:1;" contentScriptType="text/ecmascript" preserveAspectRatio="xMidYMid meet" zoomAndPan="magnify" version="1.0" contentStyleType="text/css" xml:xlink="http://www.w3.org/1999/xlink" width="1141" height="1071"><rect x="0" y="903" width="1141" height="168" ry="0" rx="0" style="stroke:#000000; fill:#C9C3AC" /><g componentSequence="1"><text x="-987" y="8" transform="rotate(270)" text-anchor="middle" style="font-weight:bold;font-size:10px;stroke:none; fill:#434343"><tspan dy="14" x="-987">Analista BPO</tspan></text></g><rect x="0" y="720" width="1141" height="184" ry="0" rx="0" style="stroke:#000000; fill:#D6E0D0" /><g componentSequence="4"><text x="-812" y="8" transform="rotate(270)" text-anchor="middle" style="font-weight:bold;font-size:10px;stroke:none; fill:#434343"><tspan dy="14" x="-812">Admissão RH</tspan></text></g><rect x="0" y="0" width="1141" height="243" ry="0" rx="0" style="stroke:#000000; fill:#82B0B7" /><g componentSequence="2"><text x="-121" y="8" transform="rotate(270)" text-anchor="middle" style="font-weight:bold;font-size:10px;stroke:none; fill:#434343"><tspan dy="14" x="-121">Verifica Hierarquia</tspan></text></g><rect x="0" y="240" width="1141" height="261" ry="0" rx="0" style="stroke:#000000; fill:#ADC9AC" /><g componentSequence="5"><text x="-370" y="8" transform="rotate(270)" text-anchor="middle" style="font-weight:bold;font-size:10px;stroke:none; fill:#434343"><tspan dy="14" x="-370">Gestor</tspan></text></g><rect x="0" y="500" width="1141" height="221" ry="0" rx="0" style="stroke:#000000; fill:#D0DAAE" /><g componentSequence="3"><text x="-610" y="8" transform="rotate(270)" text-anchor="middle" style="font-weight:bold;font-size:10px;stroke:none; fill:#434343"><tspan dy="14" x="-610">Diretor</tspan></text></g><g sequence="1"><ellipse cx="87" cy="138" rx="17" ry="17" stroke-width="1" style="fill:url(#linearGradient66FF6696FF96B6FFB6_1034183982);" stroke="336633" /></g><g sequence="5"><polygon points=" 230 120 260 90 290 120 260 150 230 120" style="fill:url(#linearGradientFAFBFCFFFFCC_862166250);" stroke="000000" /></g><g componentSequence="5"><text x="260" y="160" text-anchor="middle" style="font-weight:bold;font-size:10px;stroke:none; fill:#333399"><tspan dy="14" x="260">Verifica</tspan><tspan dy="14" x="260">r</tspan><tspan dy="14" x="260">Hier...</tspan></text></g><g sequence="7"><rect x="160" y="330" width="106" height="76" ry="5" rx="5" style="fill:url(#linearGradientF8FBFEEDF5FCDEEDFAD4E7F8E2E5E9_928779870);" stroke="191970" /></g><g componentSequence="7"><text x="213" y="345" text-anchor="middle" style="font-weight:bold;font-size:10px;stroke:none; fill:#333399"><tspan dy="14" x="213">Aprovação do</tspan><tspan dy="14" x="213">Gestor</tspan></text></g><g sequence="8"><rect x="155" y="565" width="106" height="76" ry="5" rx="5" style="fill:url(#linearGradientF8FBFEEDF5FCDEEDFAD4E7F8E2E5E9_1918801617);" stroke="191970" /></g><g componentSequence="8"><text x="208" y="580" text-anchor="middle" style="font-weight:bold;font-size:10px;stroke:none; fill:#333399"><tspan dy="14" x="208">Aprovação do</tspan><tspan dy="14" x="208">Diretor</tspan></text></g><g sequence="9"><ellipse cx="357" cy="67" rx="17" ry="17" stroke-width="1" style="fill:url(#linearGradientFFFF66FFFF96FFFFB6_1825378465);" stroke="999900" /></g><g sequence="9"><polygon points=" 343 60 358 60 358 53 373 68 358 83 358 76 343 76" style="stroke:none; fill:#999900" /></g><g sequence="11"><ellipse cx="367" cy="139" rx="17" ry="17" stroke-width="1" style="fill:url(#linearGradientFFFF66FFFF96FFFFB6_1139164446);" stroke="999900" /></g><g sequence="11"><polygon points=" 353 132 368 132 368 125 383 140 368 155 368 148 353 148" style="stroke:none; fill:#999900" /></g><g sequence="13"><ellipse cx="367" cy="207" rx="17" ry="17" stroke-width="1" style="fill:url(#linearGradientFFFF66FFFF96FFFFB6_346004930);" stroke="999900" /></g><g sequence="13"><polygon points=" 353 200 368 200 368 193 383 208 368 223 368 216 353 216" style="stroke:none; fill:#999900" /></g><g sequence="21"><ellipse cx="97" cy="367" rx="17" ry="17" stroke-width="1" style="fill:url(#linearGradientFFFF66FFFF96FFFFB6_309422494);" stroke="999900" /></g><g sequence="21"><polygon points=" 83 360 98 360 98 353 113 368 98 383 98 376 83 376" style="stroke:#999900; fill:none" /></g><g sequence="22"><ellipse cx="92" cy="599" rx="17" ry="17" stroke-width="1" style="fill:url(#linearGradientFFFF66FFFF96FFFFB6_381500265);" stroke="999900" /></g><g sequence="22"><polygon points=" 78 592 93 592 93 585 108 600 93 615 93 608 78 608" style="stroke:#999900; fill:none" /></g><g sequence="26"><polygon points=" 310 344 340 314 370 344 340 374 310 344" style="fill:url(#linearGradientFAFBFCFFFFCC_1728205333);" stroke="000000" /></g><g componentSequence="26"><text x="340" y="384" text-anchor="middle" style="font-weight:bold;font-size:10px;stroke:none; fill:#333399"><tspan dy="14" x="340">Aprova</tspan><tspan dy="14" x="340">cao</tspan></text></g><g sequence="28"><ellipse cx="457" cy="267" rx="17" ry="17" stroke-width="1" style="fill:url(#linearGradientFFFF66FFFF96FFFFB6_261862074);" stroke="999900" /></g><g sequence="28"><polygon points=" 443 260 458 260 458 253 473 268 458 283 458 276 443 276" style="stroke:none; fill:#999900" /></g><g sequence="30"><ellipse cx="457" cy="397" rx="17" ry="17" stroke-width="1" style="fill:url(#linearGradientFFFF66FFFF96FFFFB6_373233486);" stroke="999900" /></g><g sequence="30"><polygon points=" 443 390 458 390 458 383 473 398 458 413 458 406 443 406" style="stroke:none; fill:#999900" /></g><g sequence="33"><ellipse cx="457" cy="334" rx="17" ry="17" stroke-width="1" style="fill:url(#linearGradientFFFF66FFFF96FFFFB6_1764102291);" stroke="999900" /></g><g sequence="33"><polygon points=" 443 327 458 327 458 320 473 335 458 350 458 343 443 343" style="stroke:none; fill:#999900" /></g><g sequence="41"><rect x="580" y="90" width="106" height="76" ry="5" rx="5" style="fill:url(#linearGradientF8FBFEEDF5FCDEEDFAD4E7F8E2E5E9_474047832);" stroke="191970" /></g><g componentSequence="41"><text x="633" y="105" text-anchor="middle" style="font-weight:bold;font-size:10px;stroke:none; fill:#333399"><tspan dy="14" x="633">Correção da</tspan><tspan dy="14" x="633">Solicitação</tspan></text></g><g sequence="42"><ellipse cx="827" cy="47" rx="17" ry="17" stroke-width="1" style="fill:url(#linearGradientFFFF66FFFF96FFFFB6_1318914568);" stroke="999900" /></g><g sequence="42"><polygon points=" 813 40 828 40 828 33 843 48 828 63 828 56 813 56" style="stroke:none; fill:#999900" /></g><g sequence="43"><ellipse cx="837" cy="197" rx="17" ry="17" stroke-width="3" style="fill:url(#linearGradientFF6666FF9696FFB6B6_544666098);" stroke="993333" /></g><g sequence="43"><polygon points=" 828 193 833 188 838 193 843 188 848 193 843 198 848 203 843 208 838 203 833 208 828 203 833 198" style="stroke:none; fill:#993333" /></g><g sequence="44"><polygon points=" 720 100 750 70 780 100 750 130 720 100" style="fill:url(#linearGradientFAFBFCFFFFCC_2030948327);" stroke="000000" /></g><g componentSequence="44"><text x="750" y="140" text-anchor="middle" style="font-weight:bold;font-size:10px;stroke:none; fill:#333399"><tspan dy="14" x="750">Aprova</tspan><tspan dy="14" x="750">cao</tspan></text></g><g sequence="51"><ellipse cx="547" cy="129" rx="17" ry="17" stroke-width="1" style="fill:url(#linearGradientFFFF66FFFF96FFFFB6_1852902971);" stroke="999900" /></g><g sequence="51"><polygon points=" 533 122 548 122 548 115 563 130 548 145 548 138 533 138" style="stroke:#999900; fill:none" /></g><g sequence="53"><polygon points=" 310 580 340 550 370 580 340 610 310 580" style="fill:url(#linearGradientFAFBFCFFFFCC_1218086071);" stroke="000000" /></g><g componentSequence="53"><text x="340" y="620" text-anchor="middle" style="font-weight:bold;font-size:10px;stroke:none; fill:#333399"><tspan dy="14" x="340">Aprova</tspan><tspan dy="14" x="340">cao</tspan></text></g><g sequence="55"><ellipse cx="457" cy="532" rx="17" ry="17" stroke-width="1" style="fill:url(#linearGradientFFFF66FFFF96FFFFB6_1601443127);" stroke="999900" /></g><g sequence="55"><polygon points=" 443 525 458 525 458 518 473 533 458 548 458 541 443 541" style="stroke:none; fill:#999900" /></g><g sequence="57"><ellipse cx="457" cy="599" rx="17" ry="17" stroke-width="1" style="fill:url(#linearGradientFFFF66FFFF96FFFFB6_1209113545);" stroke="999900" /></g><g sequence="57"><polygon points=" 443 592 458 592 458 585 473 600 458 615 458 608 443 608" style="stroke:none; fill:#999900" /></g><g sequence="74"><rect x="160" y="780" width="106" height="60" ry="5" rx="5" style="fill:url(#linearGradientF8FBFEEDF5FCDEEDFAD4E7F8E2E5E9_787956774);" stroke="191970" /></g><g componentSequence="74"><text x="213" y="799" text-anchor="middle" style="font-weight:bold;font-size:10px;stroke:none; fill:#333399"><tspan dy="14" x="213">Admissão RH</tspan></text></g><g sequence="75"><ellipse cx="87" cy="807" rx="17" ry="17" stroke-width="1" style="fill:url(#linearGradientFFFF66FFFF96FFFFB6_852808307);" stroke="999900" /></g><g sequence="75"><polygon points=" 73 800 88 800 88 793 103 808 88 823 88 816 73 816" style="stroke:#999900; fill:none" /></g><g sequence="76"><ellipse cx="87" cy="197" rx="17" ry="17" stroke-width="1" style="fill:url(#linearGradientFFFF66FFFF96FFFFB6_1308009651);" stroke="999900" /></g><g sequence="76"><polygon points=" 73 190 88 190 88 183 103 198 88 213 88 206 73 206" style="stroke:#999900; fill:none" /></g><g sequence="79"><polygon points=" 310 787 340 757 370 787 340 817 310 787" style="fill:url(#linearGradientFAFBFCFFFFCC_167616791);" stroke="000000" /></g><g componentSequence="79"><text x="340" y="827" text-anchor="middle" style="font-weight:bold;font-size:10px;stroke:none; fill:#333399"><tspan dy="14" x="340">Aprova</tspan><tspan dy="14" x="340">cao</tspan></text></g><g sequence="81"><ellipse cx="457" cy="747" rx="17" ry="17" stroke-width="1" style="fill:url(#linearGradientFFFF66FFFF96FFFFB6_490668666);" stroke="999900" /></g><g sequence="81"><polygon points=" 443 740 458 740 458 733 473 748 458 763 458 756 443 756" style="stroke:none; fill:#999900" /></g><g sequence="83"><ellipse cx="457" cy="807" rx="17" ry="17" stroke-width="1" style="fill:url(#linearGradientFFFF66FFFF96FFFFB6_166464740);" stroke="999900" /></g><g sequence="83"><polygon points=" 443 800 458 800 458 793 473 808 458 823 458 816 443 816" style="stroke:none; fill:#999900" /></g><g sequence="89"><rect x="160" y="950" width="106" height="76" ry="5" rx="5" style="fill:url(#linearGradientF8FBFEEDF5FCDEEDFAD4E7F8E2E5E9_1900540502);" stroke="191970" /></g><g componentSequence="89"><text x="213" y="965" text-anchor="middle" style="font-weight:bold;font-size:10px;stroke:none; fill:#333399"><tspan dy="14" x="213">Gerar Kit</tspan><tspan dy="14" x="213">Admissional</tspan></text></g><g sequence="90"><ellipse cx="87" cy="984" rx="17" ry="17" stroke-width="1" style="fill:url(#linearGradientFFFF66FFFF96FFFFB6_357957744);" stroke="999900" /></g><g sequence="90"><polygon points=" 73 977 88 977 88 970 103 985 88 1000 88 993 73 993" style="stroke:#999900; fill:none" /></g><g sequence="92"><ellipse cx="452" cy="984" rx="17" ry="17" stroke-width="1" style="fill:url(#linearGradientFFFF66FFFF96FFFFB6_1889533042);" stroke="999900" /></g><g sequence="92"><polygon points=" 438 977 453 977 453 970 468 985 453 1000 453 993 438 993" style="stroke:none; fill:#999900" /></g><g sequence="97"><rect x="680" y="779" width="106" height="76" ry="5" rx="5" style="fill:url(#linearGradientF8FBFEEDF5FCDEEDFAD4E7F8E2E5E9_436028841);" stroke="191970" /></g><g componentSequence="97"><text x="733" y="794" text-anchor="middle" style="font-weight:bold;font-size:10px;stroke:none; fill:#333399"><tspan dy="14" x="733">Validar Kit</tspan><tspan dy="14" x="733">Admissão</tspan></text></g><g sequence="98"><polygon points=" 810 793 840 763 870 793 840 823 810 793" style="fill:url(#linearGradientFAFBFCFFFFCC_1474744706);" stroke="000000" /></g><g componentSequence="98"><text x="840" y="833" text-anchor="middle" style="font-weight:bold;font-size:10px;stroke:none; fill:#333399"><tspan dy="14" x="840">Aprova</tspan><tspan dy="14" x="840">cao</tspan></text></g><g sequence="100"><ellipse cx="627" cy="807" rx="17" ry="17" stroke-width="1" style="fill:url(#linearGradientFFFF66FFFF96FFFFB6_1914052238);" stroke="999900" /></g><g sequence="100"><polygon points=" 613 800 628 800 628 793 643 808 628 823 628 816 613 816" style="stroke:#999900; fill:none" /></g><g sequence="102"><ellipse cx="907" cy="747" rx="17" ry="17" stroke-width="1" style="fill:url(#linearGradientFFFF66FFFF96FFFFB6_2103771346);" stroke="999900" /></g><g sequence="102"><polygon points=" 893 740 908 740 908 733 923 748 908 763 908 756 893 756" style="stroke:none; fill:#999900" /></g><g sequence="104"><ellipse cx="917" cy="867" rx="17" ry="17" stroke-width="3" style="fill:url(#linearGradientFF6666FF9696FFB6B6_239522522);" stroke="993333" /></g><g sequence="110"><ellipse cx="467" cy="467" rx="17" ry="17" stroke-width="3" style="fill:url(#linearGradientFF6666FF9696FFB6B6_1875732561);" stroke="993333" /></g><g sequence="110"><polygon points=" 458 463 463 458 468 463 473 458 478 463 473 468 478 473 473 478 468 473 463 478 458 473 463 468" style="stroke:none; fill:#993333" /></g><g sequence="114"><ellipse cx="457" cy="667" rx="17" ry="17" stroke-width="3" style="fill:url(#linearGradientFF6666FF9696FFB6B6_770566472);" stroke="993333" /></g><g sequence="114"><polygon points=" 448 663 453 658 458 663 463 658 468 663 463 668 468 673 463 678 458 673 453 678 448 673 453 668" style="stroke:none; fill:#993333" /></g><g sequence="118"><ellipse cx="457" cy="867" rx="17" ry="17" stroke-width="3" style="fill:url(#linearGradientFF6666FF9696FFB6B6_2027622327);" stroke="993333" /></g><g sequence="118"><polygon points=" 448 863 453 858 458 863 463 858 468 863 463 868 468 873 463 878 458 873 453 878 448 873 453 868" style="stroke:none; fill:#993333" /></g><rect x="40" y="30" width="105" height="61" ry="5" rx="5" style="stroke:none; fill:#FFFFE0" /><g componentSequence="3"><text x="50" y="53" text-anchor="left" style="font-weight:bold;font-size:10px;stroke:none; fill:#000000"><tspan dy="14" x="50">Início do</tspan><tspan dy="14" x="50">Processo</tspan></text></g><path style="fill:none; stroke-width:1; stroke:#000000;" d="M60.0 30.0 L40.0 30.0 L40.0 91.0 L60.0 91.0" /><rect x="400" y="40" width="105" height="61" ry="5" rx="5" style="stroke:none; fill:#FFFFE0" /><g componentSequence="15"><text x="410" y="63" text-anchor="left" style="font-weight:bold;font-size:10px;stroke:none; fill:#000000"><tspan dy="14" x="410">Aprovação</tspan><tspan dy="14" x="410">do Gestor</tspan></text></g><path style="fill:none; stroke-width:1; stroke:#000000;" d="M420.0 40.0 L400.0 40.0 L400.0 101.0 L420.0 101.0" /><rect x="400" y="105" width="105" height="61" ry="5" rx="5" style="stroke:none; fill:#FFFFE0" /><g componentSequence="17"><text x="410" y="128" text-anchor="left" style="font-weight:bold;font-size:10px;stroke:none; fill:#000000"><tspan dy="14" x="410">Aprovação</tspan><tspan dy="14" x="410">do Diretor</tspan></text></g><path style="fill:none; stroke-width:1; stroke:#000000;" d="M420.0 105.0 L400.0 105.0 L400.0 166.0 L420.0 166.0" /><rect x="400" y="170" width="105" height="55" ry="5" rx="5" style="stroke:none; fill:#FFFFE0" /><g componentSequence="18"><text x="410" y="183" text-anchor="left" style="font-weight:bold;font-size:10px;stroke:none; fill:#000000"><tspan dy="14" x="410">Admissão RH</tspan></text></g><path style="fill:none; stroke-width:1; stroke:#000000;" d="M420.0 170.0 L400.0 170.0 L400.0 225.0 L420.0 225.0" /><rect x="500" y="250" width="105" height="61" ry="5" rx="5" style="stroke:none; fill:#FFFFE0" /><g componentSequence="35"><text x="510" y="273" text-anchor="left" style="font-weight:bold;font-size:10px;stroke:none; fill:#000000"><tspan dy="14" x="510">Aprovação</tspan><tspan dy="14" x="510">do Diretor</tspan></text></g><path style="fill:none; stroke-width:1; stroke:#000000;" d="M520.0 250.0 L500.0 250.0 L500.0 311.0 L520.0 311.0" /><rect x="500" y="310" width="105" height="55" ry="5" rx="5" style="stroke:none; fill:#FFFFE0" /><g componentSequence="37"><text x="510" y="323" text-anchor="left" style="font-weight:bold;font-size:10px;stroke:none; fill:#000000"><tspan dy="14" x="510">Admissão RH</tspan></text></g><path style="fill:none; stroke-width:1; stroke:#000000;" d="M520.0 310.0 L500.0 310.0 L500.0 365.0 L520.0 365.0" /><rect x="500" y="370" width="105" height="61" ry="5" rx="5" style="stroke:none; fill:#FFFFE0" /><g componentSequence="39"><text x="510" y="393" text-anchor="left" style="font-weight:bold;font-size:10px;stroke:none; fill:#000000"><tspan dy="14" x="510">Correção da</tspan><tspan dy="14" x="510">Solicitação</tspan></text></g><path style="fill:none; stroke-width:1; stroke:#000000;" d="M520.0 370.0 L500.0 370.0 L500.0 431.0 L520.0 431.0" /><rect x="870" y="30" width="105" height="77" ry="5" rx="5" style="stroke:none; fill:#FFFFE0" /><g componentSequence="48"><text x="880" y="53" text-anchor="left" style="font-weight:bold;font-size:10px;stroke:none; fill:#000000"><tspan dy="14" x="880">Reabertura -</tspan><tspan dy="14" x="880">Verificar</tspan><tspan dy="14" x="880">Hierarquia</tspan></text></g><path style="fill:none; stroke-width:1; stroke:#000000;" d="M890.0 30.0 L870.0 30.0 L870.0 107.0 L890.0 107.0" /><rect x="880" y="170" width="105" height="77" ry="5" rx="5" style="stroke:none; fill:#FFFFE0" /><g componentSequence="50"><text x="890" y="193" text-anchor="left" style="font-weight:bold;font-size:10px;stroke:none; fill:#000000"><tspan dy="14" x="890">Chamado</tspan><tspan dy="14" x="890">Cancelado -</tspan><tspan dy="14" x="890">Solicitante</tspan></text></g><path style="fill:none; stroke-width:1; stroke:#000000;" d="M900.0 170.0 L880.0 170.0 L880.0 247.0 L900.0 247.0" /><rect x="495" y="515" width="105" height="55" ry="5" rx="5" style="stroke:none; fill:#FFFFE0" /><g componentSequence="66"><text x="505" y="528" text-anchor="left" style="font-weight:bold;font-size:10px;stroke:none; fill:#000000"><tspan dy="14" x="505">Admissão RH</tspan></text></g><path style="fill:none; stroke-width:1; stroke:#000000;" d="M515.0 515.0 L495.0 515.0 L495.0 570.0 L515.0 570.0" /><rect x="494" y="573" width="105" height="61" ry="5" rx="5" style="stroke:none; fill:#FFFFE0" /><g componentSequence="68"><text x="504" y="596" text-anchor="left" style="font-weight:bold;font-size:10px;stroke:none; fill:#000000"><tspan dy="14" x="504">Correção da</tspan><tspan dy="14" x="504">Solicitação</tspan></text></g><path style="fill:none; stroke-width:1; stroke:#000000;" d="M514.0 573.0 L494.0 573.0 L494.0 634.0 L514.0 634.0" /><rect x="490" y="730" width="105" height="61" ry="5" rx="5" style="stroke:none; fill:#FFFFE0" /><g componentSequence="85"><text x="500" y="753" text-anchor="left" style="font-weight:bold;font-size:10px;stroke:none; fill:#000000"><tspan dy="14" x="500">Gerar Kit</tspan><tspan dy="14" x="500">Admissional</tspan></text></g><path style="fill:none; stroke-width:1; stroke:#000000;" d="M510.0 730.0 L490.0 730.0 L490.0 791.0 L510.0 791.0" /><rect x="490" y="790" width="105" height="61" ry="5" rx="5" style="stroke:none; fill:#FFFFE0" /><g componentSequence="87"><text x="500" y="813" text-anchor="left" style="font-weight:bold;font-size:10px;stroke:none; fill:#000000"><tspan dy="14" x="500">Correção da</tspan><tspan dy="14" x="500">Solicitação</tspan></text></g><path style="fill:none; stroke-width:1; stroke:#000000;" d="M510.0 790.0 L490.0 790.0 L490.0 851.0 L510.0 851.0" /><rect x="490" y="950" width="105" height="61" ry="5" rx="5" style="stroke:none; fill:#FFFFE0" /><g componentSequence="94"><text x="500" y="973" text-anchor="left" style="font-weight:bold;font-size:10px;stroke:none; fill:#000000"><tspan dy="14" x="500">Validar Kit</tspan><tspan dy="14" x="500">Admissão</tspan></text></g><path style="fill:none; stroke-width:1; stroke:#000000;" d="M510.0 950.0 L490.0 950.0 L490.0 1011.0 L510.0 1011.0" /><rect x="930" y="740" width="105" height="61" ry="5" rx="5" style="stroke:none; fill:#FFFFE0" /><g componentSequence="106"><text x="940" y="763" text-anchor="left" style="font-weight:bold;font-size:10px;stroke:none; fill:#000000"><tspan dy="14" x="940">Gerar Kit</tspan><tspan dy="14" x="940">Admissional</tspan></text></g><path style="fill:none; stroke-width:1; stroke:#000000;" d="M950.0 740.0 L930.0 740.0 L930.0 801.0 L950.0 801.0" /><rect x="940" y="830" width="105" height="61" ry="5" rx="5" style="stroke:none; fill:#FFFFE0" /><g componentSequence="108"><text x="950" y="853" text-anchor="left" style="font-weight:bold;font-size:10px;stroke:none; fill:#000000"><tspan dy="14" x="950">Fim do</tspan><tspan dy="14" x="950">Processo</tspan></text></g><path style="fill:none; stroke-width:1; stroke:#000000;" d="M960.0 830.0 L940.0 830.0 L940.0 891.0 L960.0 891.0" /><rect x="500" y="430" width="105" height="77" ry="5" rx="5" style="stroke:none; fill:#FFFFE0" /><g componentSequence="112"><text x="510" y="453" text-anchor="left" style="font-weight:bold;font-size:10px;stroke:none; fill:#000000"><tspan dy="14" x="510">Processos</tspan><tspan dy="14" x="510">Cancelado -</tspan><tspan dy="14" x="510">Reprovado</tspan></text></g><path style="fill:none; stroke-width:1; stroke:#000000;" d="M520.0 430.0 L500.0 430.0 L500.0 507.0 L520.0 507.0" /><rect x="490" y="630" width="105" height="77" ry="5" rx="5" style="stroke:none; fill:#FFFFE0" /><g componentSequence="116"><text x="500" y="653" text-anchor="left" style="font-weight:bold;font-size:10px;stroke:none; fill:#000000"><tspan dy="14" x="500">Processos</tspan><tspan dy="14" x="500">Cancelado -</tspan><tspan dy="14" x="500">Reprovado</tspan></text></g><path style="fill:none; stroke-width:1; stroke:#000000;" d="M510.0 630.0 L490.0 630.0 L490.0 707.0 L510.0 707.0" /><rect x="490" y="850" width="105" height="77" ry="5" rx="5" style="stroke:none; fill:#FFFFE0" /><g componentSequence="120"><text x="500" y="873" text-anchor="left" style="font-weight:bold;font-size:10px;stroke:none; fill:#000000"><tspan dy="14" x="500">Processos</tspan><tspan dy="14" x="500">Cancelado -</tspan><tspan dy="14" x="500">Reprovado</tspan></text></g><path style="fill:none; stroke-width:1; stroke:#000000;" d="M510.0 850.0 L490.0 850.0 L490.0 927.0 L510.0 927.0" /><g componentSequence="6"><text x="177" y="138" style="font-size:10px;font-weight:none;stroke:none; fill:#333399" text-anchor="left" /></g><g componentSequence="10"><text x="295" y="67" style="font-size:10px;font-weight:none;stroke:none; fill:#333399" text-anchor="left" /></g><g componentSequence="12"><text x="330" y="145" style="font-size:10px;font-weight:none;stroke:none; fill:#333399" text-anchor="left" /></g><g componentSequence="14"><text x="312" y="207" style="font-size:10px;font-weight:none;stroke:none; fill:#333399" text-anchor="left" /></g><g componentSequence="23"><text x="147" y="367" style="font-size:10px;font-weight:none;stroke:none; fill:#333399" text-anchor="left" /></g><g componentSequence="24"><text x="142" y="601" style="font-size:10px;font-weight:none;stroke:none; fill:#333399" text-anchor="left" /></g><g componentSequence="27"><text x="298" y="368" style="font-size:10px;font-weight:none;stroke:none; fill:#333399" text-anchor="left" /></g><g componentSequence="31"><text x="413" y="399" style="font-size:10px;font-weight:none;stroke:none; fill:#333399" text-anchor="left" /></g><g componentSequence="32"><text x="375" y="267" style="font-size:10px;font-weight:none;stroke:none; fill:#333399" text-anchor="left" /></g><g componentSequence="34"><text x="415" y="336" style="font-size:10px;font-weight:none;stroke:none; fill:#333399" text-anchor="left" /></g><g componentSequence="45"><text x="713" y="126" style="font-size:10px;font-weight:none;stroke:none; fill:#333399" text-anchor="left" /></g><g componentSequence="46"><text x="781" y="47" style="font-size:10px;font-weight:none;stroke:none; fill:#333399" text-anchor="left" /></g><g componentSequence="47"><text x="789" y="197" style="font-size:10px;font-weight:none;stroke:none; fill:#333399" text-anchor="left" /></g><g componentSequence="52"><text x="582" y="129" style="font-size:10px;font-weight:none;stroke:none; fill:#333399" text-anchor="left" /></g><g componentSequence="54"><text x="295" y="603" style="font-size:10px;font-weight:none;stroke:none; fill:#333399" text-anchor="left" /></g><g componentSequence="56"><text x="390" y="532" style="font-size:10px;font-weight:none;stroke:none; fill:#333399" text-anchor="left" /></g><g componentSequence="58"><text x="415" y="601" style="font-size:10px;font-weight:none;stroke:none; fill:#333399" text-anchor="left" /></g><g componentSequence="77"><text x="181" y="199" style="font-size:10px;font-weight:none;stroke:none; fill:#333399" text-anchor="left"><tspan dy="14" x="181">Reabertura</tspan></text></g><g componentSequence="78"><text x="142" y="808" style="font-size:10px;font-weight:none;stroke:none; fill:#333399" text-anchor="left" /></g><g componentSequence="80"><text x="298" y="810" style="font-size:10px;font-weight:none;stroke:none; fill:#333399" text-anchor="left" /></g><g componentSequence="82"><text x="396" y="746" style="font-size:10px;font-weight:none;stroke:none; fill:#333399" text-anchor="left" /></g><g componentSequence="84"><text x="415" y="809" style="font-size:10px;font-weight:none;stroke:none; fill:#333399" text-anchor="left" /></g><g componentSequence="91"><text x="142" y="986" style="font-size:10px;font-weight:none;stroke:none; fill:#333399" text-anchor="left" /></g><g componentSequence="93"><text x="360" y="986" style="font-size:10px;font-weight:none;stroke:none; fill:#333399" text-anchor="left" /></g><g componentSequence="99"><text x="808" y="817" style="font-size:10px;font-weight:none;stroke:none; fill:#333399" text-anchor="left" /></g><g componentSequence="101"><text x="672" y="811" style="font-size:10px;font-weight:none;stroke:none; fill:#333399" text-anchor="left" /></g><g componentSequence="103"><text x="867" y="746" style="font-size:10px;font-weight:none;stroke:none; fill:#333399" text-anchor="left" /></g><g componentSequence="105"><text x="881" y="865" style="font-size:10px;font-weight:none;stroke:none; fill:#333399" text-anchor="left" /></g><g componentSequence="111"><text x="382" y="467" style="font-size:10px;font-weight:none;stroke:none; fill:#333399" text-anchor="left" /></g><g componentSequence="115"><text x="394" y="667" style="font-size:10px;font-weight:none;stroke:none; fill:#333399" text-anchor="left" /></g><g componentSequence="119"><text x="399" y="867" style="font-size:10px;font-weight:none;stroke:none; fill:#333399" text-anchor="left" /></g><g componentSequence="4"><text x="99" y="106" style="font-size:10px;font-weight:none;stroke:none; fill:#333399" text-anchor="left" /></g><g componentSequence="16"><text x="397" y="68" style="font-size:10px;font-weight:none;stroke:none; fill:#333399" text-anchor="left" /></g><g componentSequence="19"><text x="402" y="138" style="font-size:10px;font-weight:none;stroke:none; fill:#333399" text-anchor="left" /></g><g componentSequence="20"><text x="402" y="204" style="font-size:10px;font-weight:none;stroke:none; fill:#333399" text-anchor="left" /></g><g componentSequence="36"><text x="497" y="272" style="font-size:10px;font-weight:none;stroke:none; fill:#333399" text-anchor="left" /></g><g componentSequence="38"><text x="497" y="335" style="font-size:10px;font-weight:none;stroke:none; fill:#333399" text-anchor="left" /></g><g componentSequence="40"><text x="497" y="398" style="font-size:10px;font-weight:none;stroke:none; fill:#333399" text-anchor="left" /></g><g componentSequence="49"><text x="867" y="54" style="font-size:10px;font-weight:none;stroke:none; fill:#333399" text-anchor="left" /></g><g componentSequence="63"><text x="877" y="201" style="font-size:10px;font-weight:none;stroke:none; fill:#333399" text-anchor="left" /></g><g componentSequence="67"><text x="495" y="535" style="font-size:10px;font-weight:none;stroke:none; fill:#333399" text-anchor="left" /></g><g componentSequence="69"><text x="494" y="601" style="font-size:10px;font-weight:none;stroke:none; fill:#333399" text-anchor="left" /></g><g componentSequence="86"><text x="492" y="751" style="font-size:10px;font-weight:none;stroke:none; fill:#333399" text-anchor="left" /></g><g componentSequence="88"><text x="492" y="811" style="font-size:10px;font-weight:none;stroke:none; fill:#333399" text-anchor="left" /></g><g componentSequence="95"><text x="490" y="983" style="font-size:10px;font-weight:none;stroke:none; fill:#333399" text-anchor="left" /></g><g componentSequence="107"><text x="937" y="754" style="font-size:10px;font-weight:none;stroke:none; fill:#333399" text-anchor="left" /></g><g componentSequence="109"><text x="947" y="865" style="font-size:10px;font-weight:none;stroke:none; fill:#333399" text-anchor="left" /></g><g componentSequence="113"><text x="502" y="467" style="font-size:10px;font-weight:none;stroke:none; fill:#333399" text-anchor="left" /></g><g componentSequence="117"><text x="492" y="667" style="font-size:10px;font-weight:none;stroke:none; fill:#333399" text-anchor="left" /></g><g componentSequence="121"><text x="492" y="874" style="font-size:10px;font-weight:none;stroke:none; fill:#333399" text-anchor="left" /></g><path style="fill:none; stroke:#000000;stroke-width:1" d="M105.0 138.0 L174.0 138.0 L229.0 147.0" /><polygon style="fill:#000000; stroke:#000000;" points=" 220 140 229 147 218 150 221 146" /><path style="fill:none; stroke:#000000;stroke-dasharray:2" d="M90.0 91.0 L88.0 121.0" /><path style="fill:none; stroke:#000000;stroke-width:1" d="M255.0 89.0 L253.0 67.0 L339.0 67.0" /><polygon style="fill:#000000; stroke:#000000;" points=" 329 62 339 67 329 72 331 67" /><path style="fill:none; stroke:#000000;stroke-width:1" d="M290.0 148.0 L350.0 141.0" /><polygon style="fill:#000000; stroke:#000000;" points=" 339 137 350 141 341 147 342 142" /><path style="fill:none; stroke:#000000;stroke-width:1" d="M261.0 214.0 L261.0 207.0 L349.0 207.0" /><polygon style="fill:#000000; stroke:#000000;" points=" 339 202 349 207 339 212 341 207" /><path style="fill:none; stroke:#000000;stroke-width:1" d="M104.0 197.0 L191.0 199.0 L229.0 173.0" /><polygon style="fill:#000000; stroke:#000000;" points=" 218 175 229 173 224 183 222 178" /><path style="fill:none; stroke:#000000;stroke-width:1" d="M266.0 368.0 L309.0 368.0" /><polygon style="fill:#000000; stroke:#000000;" points=" 299 363 309 368 299 373 301 368" /><path style="fill:none; stroke:#000000;stroke-width:1" d="M114.0 367.0 L159.0 367.0" /><polygon style="fill:#000000; stroke:#000000;" points=" 149 362 159 367 149 372 151 367" /><path style="fill:none; stroke:#000000;stroke-width:1" d="M261.0 603.0 L309.0 603.0" /><polygon style="fill:#000000; stroke:#000000;" points=" 299 598 309 603 299 608 301 603" /><path style="fill:none; stroke:#000000;stroke-width:1" d="M109.0 599.0 L154.0 601.0" /><polygon style="fill:#000000; stroke:#000000;" points=" 144 596 154 601 144 606 146 601" /><path style="fill:none; stroke:#000000;stroke-dasharray:2" d="M399.0 68.0 L374.0 67.0" /><path style="fill:none; stroke:#000000;stroke-dasharray:2" d="M399.0 137.0 L384.0 139.0" /><path style="fill:none; stroke:#000000;stroke-dasharray:2" d="M399.0 203.0 L384.0 205.0" /><path style="fill:none; stroke:#000000;stroke-width:1" d="M370.0 387.0 L390.0 399.0 L440.0 397.0" /><polygon style="fill:#000000; stroke:#000000;" points=" 430 392 440 397 430 402 432 397" /><path style="fill:none; stroke:#000000;stroke-width:1" d="M339.0 313.0 L338.0 267.0 L439.0 267.0" /><polygon style="fill:#000000; stroke:#000000;" points=" 429 262 439 267 429 272 431 267" /><path style="fill:none; stroke:#000000;stroke-width:1" d="M370.0 337.0 L370.0 337.0 L440.0 334.0" /><polygon style="fill:#000000; stroke:#000000;" points=" 430 329 440 334 430 339 432 334" /><path style="fill:none; stroke:#000000;stroke-width:1" d="M340.0 422.0 L340.0 467.0 L449.0 467.0" /><polygon style="fill:#000000; stroke:#000000;" points=" 439 462 449 467 439 472 441 467" /><path style="fill:none; stroke:#000000;stroke-dasharray:2" d="M499.0 273.0 L474.0 269.0" /><path style="fill:none; stroke:#000000;stroke-dasharray:2" d="M499.0 398.0 L474.0 397.0" /><path style="fill:none; stroke:#000000;stroke-dasharray:2" d="M499.0 335.0 L474.0 334.0" /><path style="fill:none; stroke:#000000;stroke-width:1" d="M686.0 126.0 L719.0 125.0" /><polygon style="fill:#000000; stroke:#000000;" points=" 709 120 719 125 709 130 711 125" /><path style="fill:none; stroke:#000000;stroke-width:1" d="M564.0 129.0 L579.0 128.0" /><polygon style="fill:#000000; stroke:#000000;" points=" 569 124 579 128 569 134 571 129" /><path style="fill:none; stroke:#000000;stroke-width:1" d="M753.0 69.0 L755.0 47.0 L809.0 47.0" /><polygon style="fill:#000000; stroke:#000000;" points=" 799 42 809 47 799 52 801 47" /><path style="fill:none; stroke:#000000;stroke-dasharray:2" d="M869.0 56.0 L844.0 50.0" /><path style="fill:none; stroke:#000000;stroke-width:1" d="M757.0 178.0 L759.0 197.0 L819.0 197.0" /><polygon style="fill:#000000; stroke:#000000;" points=" 809 192 819 197 809 202 811 197" /><path style="fill:none; stroke:#000000;stroke-dasharray:2" d="M879.0 202.0 L854.0 199.0" /><path style="fill:none; stroke:#000000;stroke-width:1" d="M338.0 549.0 L338.0 532.0 L439.0 532.0" /><polygon style="fill:#000000; stroke:#000000;" points=" 429 527 439 532 429 537 431 532" /><path style="fill:none; stroke:#000000;stroke-width:1" d="M370.0 602.0 L440.0 599.0" /><polygon style="fill:#000000; stroke:#000000;" points=" 430 594 440 599 430 604 432 599" /><path style="fill:none; stroke:#000000;stroke-width:1" d="M338.0 658.0 L338.0 667.0 L439.0 667.0" /><polygon style="fill:#000000; stroke:#000000;" points=" 429 662 439 667 429 672 431 667" /><path style="fill:none; stroke:#000000;stroke-dasharray:2" d="M494.0 536.0 L474.0 533.0" /><path style="fill:none; stroke:#000000;stroke-dasharray:2" d="M493.0 601.0 L474.0 599.0" /><path style="fill:none; stroke:#000000;stroke-width:1" d="M266.0 810.0 L309.0 810.0" /><polygon style="fill:#000000; stroke:#000000;" points=" 299 805 309 810 299 815 301 810" /><path style="fill:none; stroke:#000000;stroke-width:1" d="M104.0 807.0 L159.0 808.0" /><polygon style="fill:#000000; stroke:#000000;" points=" 149 803 159 808 149 813 151 808" /><path style="fill:none; stroke:#000000;stroke-width:1" d="M343.0 756.0 L344.0 746.0 L440.0 747.0" /><polygon style="fill:#000000; stroke:#000000;" points=" 430 742 440 747 430 752 432 747" /><path style="fill:none; stroke:#000000;stroke-width:1" d="M370.0 810.0 L440.0 807.0" /><polygon style="fill:#000000; stroke:#000000;" points=" 430 802 440 807 430 812 432 807" /><path style="fill:none; stroke:#000000;stroke-width:1" d="M341.0 865.0 L341.0 867.0 L439.0 867.0" /><polygon style="fill:#000000; stroke:#000000;" points=" 429 862 439 867 429 872 431 867" /><path style="fill:none; stroke:#000000;stroke-dasharray:2" d="M489.0 752.0 L474.0 749.0" /><path style="fill:none; stroke:#000000;stroke-dasharray:2" d="M489.0 812.0 L474.0 809.0" /><path style="fill:none; stroke:#000000;stroke-width:1" d="M266.0 987.0 L435.0 984.0" /><polygon style="fill:#000000; stroke:#000000;" points=" 425 979 435 984 425 989 427 984" /><path style="fill:none; stroke:#000000;stroke-width:1" d="M104.0 984.0 L159.0 986.0" /><polygon style="fill:#000000; stroke:#000000;" points=" 149 981 159 986 149 991 151 986" /><path style="fill:none; stroke:#000000;stroke-dasharray:2" d="M489.0 982.0 L469.0 984.0" /><path style="fill:none; stroke:#000000;stroke-width:1" d="M786.0 817.0 L809.0 817.0" /><polygon style="fill:#000000; stroke:#000000;" points=" 799 812 809 817 799 822 801 817" /><path style="fill:none; stroke:#000000;stroke-width:1" d="M644.0 808.0 L679.0 812.0" /><polygon style="fill:#000000; stroke:#000000;" points=" 670 806 679 812 668 816 671 811" /><path style="fill:none; stroke:#000000;stroke-width:1" d="M841.0 762.0 L841.0 746.0 L890.0 747.0" /><polygon style="fill:#000000; stroke:#000000;" points=" 880 742 890 747 880 752 882 747" /><path style="fill:none; stroke:#000000;stroke-width:1" d="M851.0 871.0 L850.0 865.0 L900.0 867.0" /><polygon style="fill:#000000; stroke:#000000;" points=" 890 862 900 867 890 872 892 867" /><path style="fill:none; stroke:#000000;stroke-dasharray:2" d="M929.0 754.0 L924.0 752.0" /><path style="fill:none; stroke:#000000;stroke-dasharray:2" d="M939.0 865.0 L934.0 866.0" /><path style="fill:none; stroke:#000000;stroke-dasharray:2" d="M499.0 467.0 L484.0 467.0" /><path style="fill:none; stroke:#000000;stroke-dasharray:2" d="M489.0 667.0 L474.0 667.0" /><path style="fill:none; stroke:#000000;stroke-dasharray:2" d="M489.0 875.0 L474.0 871.0" /><defs><linearGradient xmlns:xlink="http://www.w3.org/1999/xlink" xlink:href="#linearGradient66FF6696FF96B6FFB6" id="linearGradient66FF6696FF96B6FFB6_1034183982" x1="0" y1="121.0" x2="0" y2="156.0" gradientUnits="userSpaceOnUse" xlink:type="simple" xlink:actuate="onLoad" xlink:show="other" /><linearGradient id="linearGradient66FF6696FF96B6FFB6"><stop style="stop-color:#66FF66;stop-opacity:1;" offset="0.0" id="stop66FF66" /><stop style="stop-color:#96FF96;stop-opacity:1;" offset="0.5" id="stop96FF96" /><stop style="stop-color:#B6FFB6;stop-opacity:1;" offset="1.0" id="stopB6FFB6" /></linearGradient><linearGradient xmlns:xlink="http://www.w3.org/1999/xlink" xlink:href="#linearGradientFAFBFCFFFFCC" id="linearGradientFAFBFCFFFFCC_862166250" x1="0" y1="90.0" x2="0" y2="150.0" gradientUnits="userSpaceOnUse" xlink:type="simple" xlink:actuate="onLoad" xlink:show="other" /><linearGradient id="linearGradientFAFBFCFFFFCC"><stop style="stop-color:#FAFBFC;stop-opacity:1;" offset="0.0" id="stopFAFBFC" /><stop style="stop-color:#FFFFCC;stop-opacity:1;" offset="1.0" id="stopFFFFCC" /></linearGradient><linearGradient xmlns:xlink="http://www.w3.org/1999/xlink" xlink:href="#linearGradientF8FBFEEDF5FCDEEDFAD4E7F8E2E5E9" id="linearGradientF8FBFEEDF5FCDEEDFAD4E7F8E2E5E9_928779870" x1="0" y1="330.0" x2="0" y2="436.0" gradientUnits="userSpaceOnUse" xlink:type="simple" xlink:actuate="onLoad" xlink:show="other" /><linearGradient id="linearGradientF8FBFEEDF5FCDEEDFAD4E7F8E2E5E9"><stop style="stop-color:#F8FBFE;stop-opacity:1;" offset="0.0" id="stopF8FBFE" /><stop style="stop-color:#EDF5FC;stop-opacity:1;" offset="0.25" id="stopEDF5FC" /><stop style="stop-color:#DEEDFA;stop-opacity:1;" offset="0.5" id="stopDEEDFA" /><stop style="stop-color:#D4E7F8;stop-opacity:1;" offset="0.75" id="stopD4E7F8" /><stop style="stop-color:#E2E5E9;stop-opacity:1;" offset="1.0" id="stopE2E5E9" /></linearGradient><linearGradient xmlns:xlink="http://www.w3.org/1999/xlink" xlink:href="#linearGradientF8FBFEEDF5FCDEEDFAD4E7F8E2E5E9" id="linearGradientF8FBFEEDF5FCDEEDFAD4E7F8E2E5E9_1918801617" x1="0" y1="565.0" x2="0" y2="671.0" gradientUnits="userSpaceOnUse" xlink:type="simple" xlink:actuate="onLoad" xlink:show="other" /><linearGradient xmlns:xlink="http://www.w3.org/1999/xlink" xlink:href="#linearGradientFFFF66FFFF96FFFFB6" id="linearGradientFFFF66FFFF96FFFFB6_1825378465" x1="0" y1="50.0" x2="0" y2="85.0" gradientUnits="userSpaceOnUse" xlink:type="simple" xlink:actuate="onLoad" xlink:show="other" /><linearGradient id="linearGradientFFFF66FFFF96FFFFB6"><stop style="stop-color:#FFFF66;stop-opacity:1;" offset="0.0" id="stopFFFF66" /><stop style="stop-color:#FFFF96;stop-opacity:1;" offset="0.5" id="stopFFFF96" /><stop style="stop-color:#FFFFB6;stop-opacity:1;" offset="1.0" id="stopFFFFB6" /></linearGradient><linearGradient xmlns:xlink="http://www.w3.org/1999/xlink" xlink:href="#linearGradientFFFF66FFFF96FFFFB6" id="linearGradientFFFF66FFFF96FFFFB6_1139164446" x1="0" y1="122.0" x2="0" y2="157.0" gradientUnits="userSpaceOnUse" xlink:type="simple" xlink:actuate="onLoad" xlink:show="other" /><linearGradient xmlns:xlink="http://www.w3.org/1999/xlink" xlink:href="#linearGradientFFFF66FFFF96FFFFB6" id="linearGradientFFFF66FFFF96FFFFB6_346004930" x1="0" y1="190.0" x2="0" y2="225.0" gradientUnits="userSpaceOnUse" xlink:type="simple" xlink:actuate="onLoad" xlink:show="other" /><linearGradient xmlns:xlink="http://www.w3.org/1999/xlink" xlink:href="#linearGradientFFFF66FFFF96FFFFB6" id="linearGradientFFFF66FFFF96FFFFB6_309422494" x1="0" y1="350.0" x2="0" y2="385.0" gradientUnits="userSpaceOnUse" xlink:type="simple" xlink:actuate="onLoad" xlink:show="other" /><linearGradient xmlns:xlink="http://www.w3.org/1999/xlink" xlink:href="#linearGradientFFFF66FFFF96FFFFB6" id="linearGradientFFFF66FFFF96FFFFB6_381500265" x1="0" y1="582.0" x2="0" y2="617.0" gradientUnits="userSpaceOnUse" xlink:type="simple" xlink:actuate="onLoad" xlink:show="other" /><linearGradient xmlns:xlink="http://www.w3.org/1999/xlink" xlink:href="#linearGradientFAFBFCFFFFCC" id="linearGradientFAFBFCFFFFCC_1728205333" x1="0" y1="314.0" x2="0" y2="374.0" gradientUnits="userSpaceOnUse" xlink:type="simple" xlink:actuate="onLoad" xlink:show="other" /><linearGradient xmlns:xlink="http://www.w3.org/1999/xlink" xlink:href="#linearGradientFFFF66FFFF96FFFFB6" id="linearGradientFFFF66FFFF96FFFFB6_261862074" x1="0" y1="250.0" x2="0" y2="285.0" gradientUnits="userSpaceOnUse" xlink:type="simple" xlink:actuate="onLoad" xlink:show="other" /><linearGradient xmlns:xlink="http://www.w3.org/1999/xlink" xlink:href="#linearGradientFFFF66FFFF96FFFFB6" id="linearGradientFFFF66FFFF96FFFFB6_373233486" x1="0" y1="380.0" x2="0" y2="415.0" gradientUnits="userSpaceOnUse" xlink:type="simple" xlink:actuate="onLoad" xlink:show="other" /><linearGradient xmlns:xlink="http://www.w3.org/1999/xlink" xlink:href="#linearGradientFFFF66FFFF96FFFFB6" id="linearGradientFFFF66FFFF96FFFFB6_1764102291" x1="0" y1="317.0" x2="0" y2="352.0" gradientUnits="userSpaceOnUse" xlink:type="simple" xlink:actuate="onLoad" xlink:show="other" /><linearGradient xmlns:xlink="http://www.w3.org/1999/xlink" xlink:href="#linearGradientF8FBFEEDF5FCDEEDFAD4E7F8E2E5E9" id="linearGradientF8FBFEEDF5FCDEEDFAD4E7F8E2E5E9_474047832" x1="0" y1="90.0" x2="0" y2="196.0" gradientUnits="userSpaceOnUse" xlink:type="simple" xlink:actuate="onLoad" xlink:show="other" /><linearGradient xmlns:xlink="http://www.w3.org/1999/xlink" xlink:href="#linearGradientFFFF66FFFF96FFFFB6" id="linearGradientFFFF66FFFF96FFFFB6_1318914568" x1="0" y1="30.0" x2="0" y2="65.0" gradientUnits="userSpaceOnUse" xlink:type="simple" xlink:actuate="onLoad" xlink:show="other" /><linearGradient xmlns:xlink="http://www.w3.org/1999/xlink" xlink:href="#linearGradientFF6666FF9696FFB6B6" id="linearGradientFF6666FF9696FFB6B6_544666098" x1="0" y1="180.0" x2="0" y2="215.0" gradientUnits="userSpaceOnUse" xlink:type="simple" xlink:actuate="onLoad" xlink:show="other" /><linearGradient id="linearGradientFF6666FF9696FFB6B6"><stop style="stop-color:#FF6666;stop-opacity:1;" offset="0.0" id="stopFF6666" /><stop style="stop-color:#FF9696;stop-opacity:1;" offset="0.5" id="stopFF9696" /><stop style="stop-color:#FFB6B6;stop-opacity:1;" offset="1.0" id="stopFFB6B6" /></linearGradient><linearGradient xmlns:xlink="http://www.w3.org/1999/xlink" xlink:href="#linearGradientFAFBFCFFFFCC" id="linearGradientFAFBFCFFFFCC_2030948327" x1="0" y1="70.0" x2="0" y2="130.0" gradientUnits="userSpaceOnUse" xlink:type="simple" xlink:actuate="onLoad" xlink:show="other" /><linearGradient xmlns:xlink="http://www.w3.org/1999/xlink" xlink:href="#linearGradientFFFF66FFFF96FFFFB6" id="linearGradientFFFF66FFFF96FFFFB6_1852902971" x1="0" y1="112.0" x2="0" y2="147.0" gradientUnits="userSpaceOnUse" xlink:type="simple" xlink:actuate="onLoad" xlink:show="other" /><linearGradient xmlns:xlink="http://www.w3.org/1999/xlink" xlink:href="#linearGradientFAFBFCFFFFCC" id="linearGradientFAFBFCFFFFCC_1218086071" x1="0" y1="550.0" x2="0" y2="610.0" gradientUnits="userSpaceOnUse" xlink:type="simple" xlink:actuate="onLoad" xlink:show="other" /><linearGradient xmlns:xlink="http://www.w3.org/1999/xlink" xlink:href="#linearGradientFFFF66FFFF96FFFFB6" id="linearGradientFFFF66FFFF96FFFFB6_1601443127" x1="0" y1="515.0" x2="0" y2="550.0" gradientUnits="userSpaceOnUse" xlink:type="simple" xlink:actuate="onLoad" xlink:show="other" /><linearGradient xmlns:xlink="http://www.w3.org/1999/xlink" xlink:href="#linearGradientFFFF66FFFF96FFFFB6" id="linearGradientFFFF66FFFF96FFFFB6_1209113545" x1="0" y1="582.0" x2="0" y2="617.0" gradientUnits="userSpaceOnUse" xlink:type="simple" xlink:actuate="onLoad" xlink:show="other" /><linearGradient xmlns:xlink="http://www.w3.org/1999/xlink" xlink:href="#linearGradientF8FBFEEDF5FCDEEDFAD4E7F8E2E5E9" id="linearGradientF8FBFEEDF5FCDEEDFAD4E7F8E2E5E9_787956774" x1="0" y1="780.0" x2="0" y2="886.0" gradientUnits="userSpaceOnUse" xlink:type="simple" xlink:actuate="onLoad" xlink:show="other" /><linearGradient xmlns:xlink="http://www.w3.org/1999/xlink" xlink:href="#linearGradientFFFF66FFFF96FFFFB6" id="linearGradientFFFF66FFFF96FFFFB6_852808307" x1="0" y1="790.0" x2="0" y2="825.0" gradientUnits="userSpaceOnUse" xlink:type="simple" xlink:actuate="onLoad" xlink:show="other" /><linearGradient xmlns:xlink="http://www.w3.org/1999/xlink" xlink:href="#linearGradientFFFF66FFFF96FFFFB6" id="linearGradientFFFF66FFFF96FFFFB6_1308009651" x1="0" y1="180.0" x2="0" y2="215.0" gradientUnits="userSpaceOnUse" xlink:type="simple" xlink:actuate="onLoad" xlink:show="other" /><linearGradient xmlns:xlink="http://www.w3.org/1999/xlink" xlink:href="#linearGradientFAFBFCFFFFCC" id="linearGradientFAFBFCFFFFCC_167616791" x1="0" y1="757.0" x2="0" y2="817.0" gradientUnits="userSpaceOnUse" xlink:type="simple" xlink:actuate="onLoad" xlink:show="other" /><linearGradient xmlns:xlink="http://www.w3.org/1999/xlink" xlink:href="#linearGradientFFFF66FFFF96FFFFB6" id="linearGradientFFFF66FFFF96FFFFB6_490668666" x1="0" y1="730.0" x2="0" y2="765.0" gradientUnits="userSpaceOnUse" xlink:type="simple" xlink:actuate="onLoad" xlink:show="other" /><linearGradient xmlns:xlink="http://www.w3.org/1999/xlink" xlink:href="#linearGradientFFFF66FFFF96FFFFB6" id="linearGradientFFFF66FFFF96FFFFB6_166464740" x1="0" y1="790.0" x2="0" y2="825.0" gradientUnits="userSpaceOnUse" xlink:type="simple" xlink:actuate="onLoad" xlink:show="other" /><linearGradient xmlns:xlink="http://www.w3.org/1999/xlink" xlink:href="#linearGradientF8FBFEEDF5FCDEEDFAD4E7F8E2E5E9" id="linearGradientF8FBFEEDF5FCDEEDFAD4E7F8E2E5E9_1900540502" x1="0" y1="950.0" x2="0" y2="1056.0" gradientUnits="userSpaceOnUse" xlink:type="simple" xlink:actuate="onLoad" xlink:show="other" /><linearGradient xmlns:xlink="http://www.w3.org/1999/xlink" xlink:href="#linearGradientFFFF66FFFF96FFFFB6" id="linearGradientFFFF66FFFF96FFFFB6_357957744" x1="0" y1="967.0" x2="0" y2="1002.0" gradientUnits="userSpaceOnUse" xlink:type="simple" xlink:actuate="onLoad" xlink:show="other" /><linearGradient xmlns:xlink="http://www.w3.org/1999/xlink" xlink:href="#linearGradientFFFF66FFFF96FFFFB6" id="linearGradientFFFF66FFFF96FFFFB6_1889533042" x1="0" y1="967.0" x2="0" y2="1002.0" gradientUnits="userSpaceOnUse" xlink:type="simple" xlink:actuate="onLoad" xlink:show="other" /><linearGradient xmlns:xlink="http://www.w3.org/1999/xlink" xlink:href="#linearGradientF8FBFEEDF5FCDEEDFAD4E7F8E2E5E9" id="linearGradientF8FBFEEDF5FCDEEDFAD4E7F8E2E5E9_436028841" x1="0" y1="779.0" x2="0" y2="885.0" gradientUnits="userSpaceOnUse" xlink:type="simple" xlink:actuate="onLoad" xlink:show="other" /><linearGradient xmlns:xlink="http://www.w3.org/1999/xlink" xlink:href="#linearGradientFAFBFCFFFFCC" id="linearGradientFAFBFCFFFFCC_1474744706" x1="0" y1="763.0" x2="0" y2="823.0" gradientUnits="userSpaceOnUse" xlink:type="simple" xlink:actuate="onLoad" xlink:show="other" /><linearGradient xmlns:xlink="http://www.w3.org/1999/xlink" xlink:href="#linearGradientFFFF66FFFF96FFFFB6" id="linearGradientFFFF66FFFF96FFFFB6_1914052238" x1="0" y1="790.0" x2="0" y2="825.0" gradientUnits="userSpaceOnUse" xlink:type="simple" xlink:actuate="onLoad" xlink:show="other" /><linearGradient xmlns:xlink="http://www.w3.org/1999/xlink" xlink:href="#linearGradientFFFF66FFFF96FFFFB6" id="linearGradientFFFF66FFFF96FFFFB6_2103771346" x1="0" y1="730.0" x2="0" y2="765.0" gradientUnits="userSpaceOnUse" xlink:type="simple" xlink:actuate="onLoad" xlink:show="other" /><linearGradient xmlns:xlink="http://www.w3.org/1999/xlink" xlink:href="#linearGradientFF6666FF9696FFB6B6" id="linearGradientFF6666FF9696FFB6B6_239522522" x1="0" y1="850.0" x2="0" y2="885.0" gradientUnits="userSpaceOnUse" xlink:type="simple" xlink:actuate="onLoad" xlink:show="other" /><linearGradient xmlns:xlink="http://www.w3.org/1999/xlink" xlink:href="#linearGradientFF6666FF9696FFB6B6" id="linearGradientFF6666FF9696FFB6B6_1875732561" x1="0" y1="450.0" x2="0" y2="485.0" gradientUnits="userSpaceOnUse" xlink:type="simple" xlink:actuate="onLoad" xlink:show="other" /><linearGradient xmlns:xlink="http://www.w3.org/1999/xlink" xlink:href="#linearGradientFF6666FF9696FFB6B6" id="linearGradientFF6666FF9696FFB6B6_770566472" x1="0" y1="650.0" x2="0" y2="685.0" gradientUnits="userSpaceOnUse" xlink:type="simple" xlink:actuate="onLoad" xlink:show="other" /><linearGradient xmlns:xlink="http://www.w3.org/1999/xlink" xlink:href="#linearGradientFF6666FF9696FFB6B6" id="linearGradientFF6666FF9696FFB6B6_2027622327" x1="0" y1="850.0" x2="0" y2="885.0" gradientUnits="userSpaceOnUse" xlink:type="simple" xlink:actuate="onLoad" xlink:show="other" /></defs></svg>
